REM DIRINDEX 1\3,1\2\4,1\2\5,1\2\6
REM DIRNAME folder01,folder02,folder03,folder04,folder05,folder06
TITLE ""
FILE "108.mp3" MP3
  TRACK 01 AUDIO
    TITLE "4:cjc137_4455"
    INDEX 01 00:00:00
  TRACK 02 AUDIO
    TITLE "0:"
    INDEX 01 00:01:13
  TRACK 03 AUDIO
    TITLE "6:cjc137_4456"
    INDEX 01 00:01:21
  TRACK 04 AUDIO
    TITLE "0:"
    INDEX 01 00:02:55
  TRACK 05 AUDIO
    TITLE "5:cjc137_4457"
    INDEX 01 00:02:59
  TRACK 06 AUDIO
    TITLE "0:"
    INDEX 01 00:03:72
  TRACK 07 AUDIO
    TITLE "4:cjc137_4458"
    INDEX 01 00:05:07
  TRACK 08 AUDIO
    TITLE "0:"
    INDEX 01 00:06:22
  TRACK 09 AUDIO
    TITLE "6:cjc137_4459"
    INDEX 01 00:06:35
  TRACK 10 AUDIO
    TITLE "0:"
    INDEX 01 00:07:45
  TRACK 11 AUDIO
    TITLE "5:cjc137_4460"
    INDEX 01 00:07:54
  TRACK 12 AUDIO
    TITLE "0:"
    INDEX 01 00:08:70
  TRACK 13 AUDIO
    TITLE "4:cjc137_4461"
    INDEX 01 00:10:12
  TRACK 14 AUDIO
    TITLE "0:"
    INDEX 01 00:11:31
  TRACK 15 AUDIO
    TITLE "6:cjc137_4462"
    INDEX 01 00:11:39
  TRACK 16 AUDIO
    TITLE "0:"
    INDEX 01 00:12:54
  TRACK 17 AUDIO
    TITLE "5:cjc137_4463"
    INDEX 01 00:12:58
  TRACK 18 AUDIO
    TITLE "0:"
    INDEX 01 00:14:04
  TRACK 19 AUDIO
    TITLE "4:cjc137_4464"
    INDEX 01 00:15:11
  TRACK 20 AUDIO
    TITLE "0:"
    INDEX 01 00:16:18
  TRACK 21 AUDIO
    TITLE "6:cjc137_4465"
    INDEX 01 00:16:28
  TRACK 22 AUDIO
    TITLE "0:"
    INDEX 01 00:17:18
  TRACK 23 AUDIO
    TITLE "5:cjc137_4466"
    INDEX 01 00:17:25
  TRACK 24 AUDIO
    TITLE "0:"
    INDEX 01 00:18:33
  TRACK 25 AUDIO
    TITLE "4:cjc137_4467"
    INDEX 01 00:19:42
  TRACK 26 AUDIO
    TITLE "0:"
    INDEX 01 00:20:45
  TRACK 27 AUDIO
    TITLE "6:cjc137_4468"
    INDEX 01 00:20:53
  TRACK 28 AUDIO
    TITLE "0:"
    INDEX 01 00:21:57
  TRACK 29 AUDIO
    TITLE "5:cjc137_4469"
    INDEX 01 00:21:60
  TRACK 30 AUDIO
    TITLE "0:"
    INDEX 01 00:22:66
  TRACK 31 AUDIO
    TITLE "4:cjc137_4470"
    INDEX 01 00:24:00
  TRACK 32 AUDIO
    TITLE "0:"
    INDEX 01 00:25:33
  TRACK 33 AUDIO
    TITLE "6:cjc137_4471"
    INDEX 01 00:25:41
  TRACK 34 AUDIO
    TITLE "0:"
    INDEX 01 00:27:00
  TRACK 35 AUDIO
    TITLE "5:cjc137_4472"
    INDEX 01 00:27:06
  TRACK 36 AUDIO
    TITLE "0:"
    INDEX 01 00:28:39
  TRACK 37 AUDIO
    TITLE "4:cjc137_4473"
    INDEX 01 00:29:48
  TRACK 38 AUDIO
    TITLE "0:"
    INDEX 01 00:31:16
  TRACK 39 AUDIO
    TITLE "6:cjc137_4474"
    INDEX 01 00:31:24
  TRACK 40 AUDIO
    TITLE "0:"
    INDEX 01 00:32:39
  TRACK 41 AUDIO
    TITLE "5:cjc137_4475"
    INDEX 01 00:32:45
  TRACK 42 AUDIO
    TITLE "0:"
    INDEX 01 00:34:10
  TRACK 43 AUDIO
    TITLE "4:cjc137_4476"
    INDEX 01 00:35:19
  TRACK 44 AUDIO
    TITLE "0:"
    INDEX 01 00:36:54
  TRACK 45 AUDIO
    TITLE "6:cjc137_4477"
    INDEX 01 00:36:62
  TRACK 46 AUDIO
    TITLE "0:"
    INDEX 01 00:38:73
  TRACK 47 AUDIO
    TITLE "5:cjc137_4478"
    INDEX 01 00:39:03
  TRACK 48 AUDIO
    TITLE "0:"
    INDEX 01 00:40:40
  TRACK 49 AUDIO
    TITLE "4:cjc137_4479"
    INDEX 01 00:41:47
  TRACK 50 AUDIO
    TITLE "0:"
    INDEX 01 00:42:57
  TRACK 51 AUDIO
    TITLE "6:cjc137_4480"
    INDEX 01 00:42:65
  TRACK 52 AUDIO
    TITLE "0:"
    INDEX 01 00:43:54
  TRACK 53 AUDIO
    TITLE "5:cjc137_4481"
    INDEX 01 00:43:62
  TRACK 54 AUDIO
    TITLE "0:"
    INDEX 01 00:44:69
  TRACK 55 AUDIO
    TITLE "4:cjc137_4482"
    INDEX 01 00:46:04
  TRACK 56 AUDIO
    TITLE "0:"
    INDEX 01 00:47:28
  TRACK 57 AUDIO
    TITLE "6:cjc137_4483"
    INDEX 01 00:47:34
  TRACK 58 AUDIO
    TITLE "0:"
    INDEX 01 00:48:40
  TRACK 59 AUDIO
    TITLE "5:cjc137_4484"
    INDEX 01 00:48:44
  TRACK 60 AUDIO
    TITLE "0:"
    INDEX 01 00:49:69
  TRACK 61 AUDIO
    TITLE "4:cjc137_4485"
    INDEX 01 00:51:01
  TRACK 62 AUDIO
    TITLE "0:"
    INDEX 01 00:52:12
  TRACK 63 AUDIO
    TITLE "6:cjc137_4486"
    INDEX 01 00:52:18
  TRACK 64 AUDIO
    TITLE "0:"
    INDEX 01 00:53:31
  TRACK 65 AUDIO
    TITLE "5:cjc137_4487"
    INDEX 01 00:53:35
  TRACK 66 AUDIO
    TITLE "0:"
    INDEX 01 00:54:46
  TRACK 67 AUDIO
    TITLE "4:cjc137_4488"
    INDEX 01 00:55:53
  TRACK 68 AUDIO
    TITLE "0:"
    INDEX 01 00:57:09
  TRACK 69 AUDIO
    TITLE "6:cjc137_4489"
    INDEX 01 00:57:15
  TRACK 70 AUDIO
    TITLE "0:"
    INDEX 01 00:58:24
  TRACK 71 AUDIO
    TITLE "5:cjc137_4490"
    INDEX 01 00:58:30
  TRACK 72 AUDIO
    TITLE "0:"
    INDEX 01 00:59:61
  TRACK 73 AUDIO
    TITLE "4:cjc137_4491"
    INDEX 01 01:00:68
  TRACK 74 AUDIO
    TITLE "0:"
    INDEX 01 01:02:12
  TRACK 75 AUDIO
    TITLE "6:cjc137_4492"
    INDEX 01 01:02:18
  TRACK 76 AUDIO
    TITLE "0:"
    INDEX 01 01:03:33
  TRACK 77 AUDIO
    TITLE "5:cjc137_4493"
    INDEX 01 01:03:37
  TRACK 78 AUDIO
    TITLE "0:"
    INDEX 01 01:04:58
  TRACK 79 AUDIO
    TITLE "4:cjc137_4494"
    INDEX 01 01:05:64
  TRACK 80 AUDIO
    TITLE "0:"
    INDEX 01 01:07:04
  TRACK 81 AUDIO
    TITLE "6:cjc137_4495"
    INDEX 01 01:07:14
  TRACK 82 AUDIO
    TITLE "0:"
    INDEX 01 01:08:21
  TRACK 83 AUDIO
    TITLE "5:cjc137_4496"
    INDEX 01 01:08:31
  TRACK 84 AUDIO
    TITLE "0:"
    INDEX 01 01:09:46
